PathFileType	4	(X/Y/Z)	/Users/itak/Documents/Research/Walk-IL/dataset/trc/00266_00009.trc
DataRate	CameraRate	NumFrames	NumMarkers	Units	OrigDataRate	OrigDataStartFrame	OrigNumFrames
100.000000	100.000000	4	54	mm	100.000000	52	421
Frame#	Time	RPSI			LPSI			L3			STRN			T10			C7			CLAV			RBAK			LBAK			LSHO			LUPA			LAEL			LAOL			LWTS			LWPS			LFRA			LIFD			LHPS			LHTS			RSHO			RUPA			RAEL			RAOL			RWPS			RFRA			RIFD			RHTS			RHPS			RBHD			LFHD			RFHD			LBHD			LHIP			RHIP			RASI			LASI			LKNE			LTHI			LANK			LTIP			LTOE			LMT1			LMT5			LHEE			RKNE			RTHI			RANK			RTIP			RTOE			RMT1			RMT5			RWTS			RHEE			*53			
		X1	Y1	Z1	X2	Y2	Z2	X3	Y3	Z3	X4	Y4	Z4	X5	Y5	Z5	X6	Y6	Z6	X7	Y7	Z7	X8	Y8	Z8	X9	Y9	Z9	X10	Y10	Z10	X11	Y11	Z11	X12	Y12	Z12	X13	Y13	Z13	X14	Y14	Z14	X15	Y15	Z15	X16	Y16	Z16	X17	Y17	Z17	X18	Y18	Z18	X19	Y19	Z19	X20	Y20	Z20	X21	Y21	Z21	X22	Y22	Z22	X23	Y23	Z23	X24	Y24	Z24	X25	Y25	Z25	X26	Y26	Z26	X27	Y27	Z27	X28	Y28	Z28	X29	Y29	Z29	X30	Y30	Z30	X31	Y31	Z31	X32	Y32	Z32	X33	Y33	Z33	X34	Y34	Z34	X35	Y35	Z35	X36	Y36	Z36	X37	Y37	Z37	X38	Y38	Z38	X39	Y39	Z39	X40	Y40	Z40	X41	Y41	Z41	X42	Y42	Z42	X43	Y43	Z43	X44	Y44	Z44	X45	Y45	Z45	X46	Y46	Z46	X47	Y47	Z47	X48	Y48	Z48	X49	Y49	Z49	X50	Y50	Z50	X51	Y51	Z51	X52	Y52	Z52	X53	Y53	Z53	X54	Y54	Z54	

53	0.52	-1395.183959960938	1054.276245117188	720.428955078125	-1396.66845703125	1050.775634765625	599.4144897460938	-1397.81494140625	1136.2490234375	637.9783935546875	-1134.788330078125	1299.962768554688	625.385498046875	-1391.724365234375	1262.535522460938	640.1986083984375	-1306.039306640625	1517.75537109375	634.2261352539062	-1147.185424804688	1420.480590820312	628.0493774414062	-1390.242919921875	1386.46435546875	711.0955200195312	-1333.121459960938	1482.710083007812	523.15869140625	-1245.6083984375	1475.635620117188	465.1141357421875	-1282.8271484375	1360.046997070312	385.4142456054688	-1276.76953125	1146.659912109375	359.9272155761719	-1347.179565429688	1132.660400390625	409.686767578125	-1179.36474609375	915.8511962890625	421.3248291015625	-1206.089233398438	896.451904296875	343.7435607910156	-1253.98486328125	1039.108764648438	348.5745849609375	-1162.05078125	721.3974609375	419.88720703125	-1184.5546875	808.8480834960938	350.8114318847656	-1140.925048828125	817.2023315429688	403.1424865722656	-1243.0927734375	1472.228393554688	799.9793090820312	-1264.032958984375	1410.265380859375	867.3541259765625	-1312.5927734375	1136.809448242188	923.8767700195312	-1346.430297851562	1127.851928710938	835.1424560546875	-1244.869750976562	903.7373657226562	958.4884643554688	-1290.310180664062	1067.377685546875	940.0293579101562	-1157.279663085938	731.1973876953125	898.8213500976562	-1138.34716796875	806.3551635742188	917.4847412109375	-1190.966674804688	800.87548828125	967.5323486328125	-1221.178833007812	1663.231201171875	709.8935546875	-1076.324462890625	1695.718505859375	536.7242431640625	-1033.3056640625	1690.3828125	627.0119018554688	-1236.364013671875	1673.073852539062	569.8972778320312	-1307.056396484375	972.5173950195312	457.2513732910156	-1289.00537109375	1024.540771484375	823.2176513671875	-1196.391723632812	1055.181396484375	777.5802001953125	-1200.525146484375	1013.315307617188	497.2601623535156	-1316.479370117188	492.3061828613281	532.8048706054688	-1305.244506835938	634.0711059570312	492.5512084960938	-1460.553588867188	38.51233673095703	572.7903442382812	-1392.394287109375	275.0169677734375	544.9461669921875	-1246.303466796875	47.0543212890625	629.8839111328125	-1314.85205078125	39.00858306884766	671.8367919921875	-1331.186157226562	41.97989654541016	555.0380859375	-1524.34375	44.37349700927734	622.7099609375	-1093.65234375	567.1964111328125	817.4860229492188	-1177.933227539062	824.1470947265625	842.4971923828125	-1107.691650390625	66.81842803955078	857.4750366210938	-1068.476318359375	446.7238159179688	812.7041625976562	-917.7907104492188	111.700080871582	780.3504028320312	-975.547607421875	88.680419921875	747.899169921875	-997.9807739257812	85.25614166259766	863.2962036132812	-1192.601928710938	914.123779296875	891.2482299804688	-1178.444213867188	49.73171997070312	814.537109375	nan	nan	nan	
54	0.53	-1391.416259765625	1053.770874023438	721.27734375	-1393.492553710938	1050.291015625	600.2935791015625	-1394.438110351562	1135.82568359375	638.8331909179688	-1131.222045898438	1299.262939453125	625.2125244140625	-1388.144775390625	1262.126708984375	640.9558715820312	-1302.1943359375	1517.247924804688	634.7235717773438	-1143.624877929688	1419.753784179688	627.9530639648438	-1386.274047851562	1386.02783203125	711.8135986328125	-1329.68994140625	1482.289794921875	523.7185668945312	-1242.373901367188	1475.12451171875	465.4042358398438	-1279.8837890625	1359.569946289062	385.8156433105469	-1273.922607421875	1146.128051757812	360.4271545410156	-1344.3154296875	1132.218139648438	410.2485656738281	-1176.572509765625	915.30224609375	421.8951721191406	-1203.345458984375	895.81884765625	344.4480285644531	-1251.210083007812	1038.554809570312	349.1521911621094	-1159.305908203125	720.6766357421875	420.6273803710938	-1182.006225585938	808.3038330078125	351.4409484863281	-1138.258056640625	816.61083984375	403.81201171875	-1238.7568359375	1471.572631835938	800.2538452148438	-1259.58935546875	1409.62158203125	867.6669921875	-1308.579345703125	1136.302856445312	924.2860717773438	-1342.599731445312	1127.412231445312	835.6099243164062	-1241.28369140625	903.1680908203125	958.844482421875	-1286.408447265625	1066.835693359375	940.4178466796875	-1154.501586914062	730.1337280273438	898.9969482421875	-1135.3291015625	805.2315673828125	917.551025390625	-1187.856323242188	800.0123291015625	967.763916015625	-1216.87060546875	1662.30615234375	710.5051879882812	-1073.443359375	1695.512573242188	536.3407592773438	-1029.766723632812	1690.037353515625	626.2551879882812	-1233.1669921875	1672.46728515625	570.679931640625	-1304.796508789062	972.1089477539062	457.4984741210938	-1284.282104492188	1023.927368164062	823.4638671875	-1192.25146484375	1054.63134765625	777.491455078125	-1197.8515625	1012.79638671875	497.1654052734375	-1314.545166015625	491.9164733886719	532.9362182617188	-1303.051513671875	633.6570434570312	492.7945556640625	-1460.559448242188	38.53816986083984	572.8079223632812	-1391.421020507812	274.8955688476562	544.9904174804688	-1246.337524414062	47.10378265380859	629.86181640625	-1314.81640625	39.01376724243164	671.835205078125	-1331.188720703125	41.95161437988281	555.018798828125	-1524.368530273438	44.37517166137695	622.7529907226562	-1088.919067382812	567.1239013671875	817.746337890625	-1173.78125	823.7533569335938	843.0867919921875	-1096.598388671875	66.64439392089844	857.6469116210938	-1062.421508789062	447.0661010742188	812.7742919921875	-907.6213989257812	112.9117965698242	779.0701904296875	-965.4570922851562	89.60361480712891	747.0671997070312	-987.001708984375	85.78141784667969	862.6162109375	-1189.275268554688	913.2590942382812	891.5045166015625	-1167.566772460938	48.79365158081055	815.3602905273438	nan	nan	nan	
55	0.54	-1387.5166015625	1053.185302734375	722.206298828125	-1390.192504882812	1049.766235351562	601.2247314453125	-1390.95458984375	1135.354736328125	639.7581787109375	-1127.56005859375	1298.527587890625	625.0577392578125	-1384.46875	1261.666137695312	641.780029296875	-1298.265014648438	1516.693359375	635.25732421875	-1139.984619140625	1418.988891601562	627.8735961914062	-1382.186645507812	1385.536865234375	712.5859985351562	-1326.187622070312	1481.823608398438	524.3271484375	-1239.075805664062	1474.577270507812	465.7187805175781	-1276.884521484375	1359.04638671875	386.2570190429688	-1271.013061523438	1145.554809570312	360.9557189941406	-1341.3720703125	1131.725830078125	410.8522338867188	-1173.738159179688	914.68896484375	422.4411010742188	-1200.5673828125	895.13134765625	345.1379699707031	-1248.39453125	1037.957275390625	349.7382202148438	-1156.680541992188	719.9348754882812	421.3018493652344	-1179.468994140625	807.7345581054688	351.9993591308594	-1135.5517578125	815.9515380859375	404.4264221191406	-1234.310668945312	1470.876342773438	800.5584716796875	-1255.0166015625	1408.939208984375	868.013671875	-1304.44091796875	1135.758544921875	924.7465209960938	-1338.6513671875	1126.937133789062	836.1365356445312	-1237.52490234375	902.5628662109375	959.2007446289062	-1282.354858398438	1066.25439453125	940.8448486328125	-1151.487915039062	729.108154296875	899.0904541015625	-1132.081665039062	804.1407470703125	917.5570068359375	-1184.521606445312	799.1409912109375	967.9640502929688	-1212.48291015625	1661.349731445312	711.1040649414062	-1070.47509765625	1695.260864257812	535.9828491210938	-1026.167236328125	1689.650024414062	625.5299072265625	-1229.88037109375	1671.818359375	571.4608154296875	-1302.454833984375	971.6697998046875	457.7912292480469	-1279.480102539062	1023.266967773438	823.7685546875	-1187.967651367188	1054.038330078125	777.4173583984375	-1195.095947265625	1012.247436523438	497.0872802734375	-1312.519409179688	491.5207824707031	533.0921020507812	-1300.723022460938	633.2222900390625	493.0956420898438	-1460.562255859375	38.57501220703125	572.828857421875	-1390.375122070312	274.7759094238281	545.0472412109375	-1246.395385742188	47.15416717529297	629.8474731445312	-1314.782958984375	39.01759338378906	671.8275146484375	-1331.195922851562	41.93338394165039	555.0005493164062	-1524.394897460938	44.37363433837891	622.7965087890625	-1084.109619140625	566.9420776367188	817.9835815429688	-1169.570922851562	823.2554931640625	843.673095703125	-1085.8515625	66.46131134033203	857.8067016601562	-1056.387451171875	447.2878723144531	812.7987670898438	-897.8104248046875	113.9245376586914	777.7070922851562	-955.7534790039062	90.34135437011719	746.1693725585938	-976.3687133789062	86.20457458496094	861.8754272460938	-1185.766845703125	912.4010620117188	891.7401733398438	-1157.0390625	47.91463470458984	816.165771484375	nan	nan	nan	
56	0.55	-1383.482299804688	1052.523193359375	723.214599609375	-1386.761474609375	1049.196533203125	602.2113037109375	-1387.35205078125	1134.834228515625	640.7507934570312	-1123.797973632812	1297.757934570312	624.922119140625	-1380.69091796875	1261.153442382812	642.6690063476562	-1294.251831054688	1516.090087890625	635.829345703125	-1136.247436523438	1418.19091796875	627.8125	-1377.980102539062	1384.987670898438	713.4107666015625	-1322.614624023438	1481.30810546875	524.98486328125	-1235.713256835938	1473.98876953125	466.0589904785156	-1273.831787109375	1358.47607421875	386.7369079589844	-1268.047485351562	1144.939453125	361.510009765625	-1338.351928710938	1131.187255859375	411.501953125	-1170.863647460938	914.012939453125	422.9624633789062	-1197.755615234375	894.3952026367188	345.8062744140625	-1245.543823242188	1037.314086914062	350.3305358886719	-1154.127197265625	719.1790771484375	421.9159240722656	-1176.920166015625	807.1399536132812	352.4918823242188	-1132.797607421875	815.2296752929688	404.98193359375	-1229.751831054688	1470.138671875	800.8922119140625	-1250.314086914062	1408.21630859375	868.3911743164062	-1300.160400390625	1135.171630859375	925.2511596679688	-1334.578247070312	1126.42138671875	836.7174682617188	-1233.588989257812	901.91650390625	959.5596313476562	-1278.144165039062	1065.630981445312	941.3075561523438	-1148.260864257812	728.1019897460938	899.116943359375	-1128.598388671875	803.0752563476562	917.5131225585938	-1180.95654296875	798.2525634765625	968.1322631835938	-1208.020629882812	1660.366088867188	711.691650390625	-1067.412475585938	1694.95849609375	535.65185546875	-1022.501159667969	1689.219360351562	624.842041015625	-1226.505004882812	1671.129760742188	572.2335815429688	-1299.995239257812	971.1881713867188	458.1511535644531	-1274.676513671875	1022.571960449219	824.1465454101562	-1183.538696289062	1053.39990234375	777.3588256835938	-1192.248291015625	1011.662292480469	497.0331420898438	-1310.41552734375	491.1137084960938	533.2657470703125	-1298.279418945312	632.7677612304688	493.4408874511719	-1460.559814453125	38.61370849609375	572.8552856445312	-1389.267944335938	274.6448669433594	545.1087036132812	-1246.470092773438	47.20153045654297	629.8356323242188	-1314.75439453125	39.02322387695312	671.8134765625	-1331.207275390625	41.92422485351562	554.9783935546875	-1524.426513671875	44.37157821655273	622.8350219726562	-1079.209228515625	566.6505737304688	818.1870727539062	-1165.258911132812	822.6592407226562	844.2506103515625	-1075.4677734375	66.25572967529297	857.9765625	-1050.37255859375	447.3815612792969	812.763671875	-888.3857421875	114.7275543212891	776.2252197265625	-946.481201171875	90.88096618652344	745.1900024414062	-966.0988159179688	86.51568603515625	861.0585327148438	-1182.062866210938	911.54345703125	891.9574584960938	-1146.895751953125	47.10234451293945	816.9715576171875	nan	nan	nan	
